  <svg xmlns="http://www.w3.org/2000/svg" width="1021" height="511">
            <clipPath id="a">
              <path d="M0 0h1021v511H0z" />
            </clipPath>
            <g clip-path="url(#a)">
              <path
                fill="#2B2930"
                d="M173.861 102.437c14.418 3.28 27.412 8.844 35.555 21.932q1.019 1.654 1.883 3.395.866 1.74 1.57 3.552t1.244 3.679q.538 1.868.906 3.776c-3.358-4.157-4.389-10.403-8.797-15.664-6.213-7.413-17.208-15.862-27.166-16.732-1.723-1.322-3.431-2.67-5.195-3.938m621.377 222.57c1.573-.088 2.857-.122 4.39.269.262.292.617.522.787.876.927 1.933-.03 31.615-.054 36.453-.136.054-.263.13-.406.161q-.512.113-1.037.13t-1.043-.062-1.014-.254q-.494-.174-.949-.437c-2.079-3.266-.744-31.575-.674-37.136m-121.638.035c1.851-.04 3.375-.037 5.161.481 1.717 2.487.766 27.902.737 32.82 6.04-.096 15.288-1.876 20.7.813 1.124 1.375.929 1.86.996 3.59-9.044.312-18.18.052-27.235.058-.599-12.554-.093-25.189-.36-37.762m77.43-.135c5.242-.08 30.844-1.56 34.145 1.615-.145 1.091.091.88-.653 1.52-3.177 2.728-9.787 1.619-13.737 1.414l.047 19.689c.228 4.097.78 8.09-1.15 11.902-.546 1.08-.939 1.526-2.122 1.86-.138-.11-.292-.203-.414-.33-3.095-3.194-1.671-27.295-1.839-33.058-3.6.038-9.832 1.418-12.865-.83-1.225-.907-1.167-2.406-1.412-3.782m-157.901.036c6.021-.54 11.461.119 17.332 1.457-.29.87-.55 1.856-.961 2.67-2.075 4.097-11.984-1.652-17.505.392-1.597.592-2.699 1.603-3.455 3.11-.643 1.277-1.26 2.8-.609 4.205 2.21 4.753 14.807 5.742 19.364 8.113 2.198 1.143 4.575 2.758 5.194 5.323.568 2.358-.705 5.137-2.037 7.028-2.66 3.779-6.6 4.807-10.88 5.65-4.307.16-8.665.214-12.766-1.318-2.043-.763-3.814-1.618-4.731-3.666 2.692-2.656 12.485 1.056 16.446.87 2.572-.12 5.404-.793 7.142-2.84 1.199-1.412 1.479-2.886 1.317-4.697-2.445-4.86-14.114-5.587-19.024-7.74-2.372-1.04-4.674-2.603-5.522-5.178-.774-2.353-.084-5.414 1.126-7.506 2.013-3.482 5.898-4.899 9.569-5.873m145.744-.827c.992.165 1.686.43 2.581.887.383.585.614 1.061.65 1.775.366 7.695 1.496 25.128-4.009 31.226-3.261 3.613-8.117 5.302-12.897 5.45-4.393.136-8.676-1.09-11.85-4.243-6.227-6.186-5.623-16.668-5.487-24.74.097-2.73-.672-5.673.772-8.15.716-1.23 1.503-1.791 2.86-2.1 3.573 2.641 1.281 20.449 2.51 25.93q.126.559.307 1.103.18.543.413 1.066.233.522.516 1.02.283.497.614.963.331.467.707.898.376.432.792.824.417.393.87.742.452.35.938.652.523.314 1.076.574.552.259 1.127.46.577.202 1.17.345t1.198.222 1.215.1q.61.018 1.218-.026.61-.044 1.21-.15.6-.104 1.188-.27c15.154-4.332 4.73-24.352 10.054-34.106q.126-.227.257-.452m-260.096.817c5.743.028 23.86-1.474 27.817 1.262.424 1.214.34 1.195-.147 2.403-5.58 2.026-16.1.821-22.299.74l.013 12.564c5.478-.022 11.673-.977 16.991.324 1.423.35 2.618.713 3.421 1.983-.21.204-.4.433-.632.611-3.087 2.366-14.781 1.442-18.928 1.323-.507.18-.173.025-.86.693-.418 3.886-.17 7.874-.088 11.778 5.047-.094 18.534-1.292 22.687 1.02.755.418.52.377.779 1.335l-.615.817c-5.419 2.481-21.374.996-28.219.906-.04-12.562-.35-25.207.08-37.759m416.642 28.297c.272-6.197-1.326-22.495 1.077-26.87.567-1.032 1.017-1.625 2.17-1.954.204.129.434.222.61.385 2.342 2.166 1.815 34.442 1.104 38.926-8.041-2.871-22.367-22.388-28.365-29.687.177 5.59 1.863 24.603-1.032 28.329-.489.628-.773.504-1.494.62-.489-.285-.575-.293-1.003-.776-2.83-3.19-1.314-31.85-1.246-37.631 6.853 1.85 22.788 22.555 28.179 28.658m-485.939-29.237 1.787.509c5.699 5.045 11.22 23.136 13.846 30.527 2.621-5.79 8.715-26.324 13.033-28.952.673-.41 1.031-.16 1.748-.024 4.835 4.042 10.036 22.148 12.68 28.746 2.388-5.14 9.791-27.01 12.609-29.388 1.155-.974 2.55-.608 3.935-.444.25 1.523-.669 3.073-1.234 4.51-3.282 8.54-8.818 25.55-13 32.712-1.587.805-3.293.592-5.024.57-3.67-9.28-8.11-19.306-10.637-28.935-2.547 6.43-8.854 26.02-14.415 29.642-.675-.24-1.012-.48-1.466-1.042-4.317-5.355-14.58-31.696-13.862-38.431M81.42 91.252c19.485-7.29 43.545-9.796 62.977-.876 6.424 2.95 11.454 7.02 15.335 12.945-3.75-2.04-5.787-6.063-9.568-8.216-15.065-8.58-38.063-8.586-54.32-3.947l-2.577.993c.709 2.218 3.809 4.647 5.253 6.68 4.287 6.035 7.538 13.639 9.268 20.817 6.334 26.276-5.002 57.884 13.04 80.638 1.707 2.153 11.377 10.24 11.027 11.288-2.703.451-4.592-.294-6.828-1.843-10.76-7.449-16.482-20.61-18.457-33.149-3.968-25.187 5.59-63.795-18.234-81.267-2.18-1.6-4.521-2.827-6.917-4.063m255.322 283.159c1.356-.986 2.7-2 4.087-2.94 6.622 6.612 13.034 13.256 18.462 20.92 11.46 16.182 23.127 43.595 23.201 63.495.012 3.408-.392 7.404-2.933 9.943-1.731 1.73-4.018 2.318-6.41 2.275-13.987-.247-38.759-23.068-47.807-33.003-5.991-6.579-20.368-26.856-20.26-35.677.017-1.353.208-1.829 1.191-2.753.302-.284.817-.635 1.167-.883 5.393 9.258 8.157 19.621 14.428 28.539 7.28 10.35 37.994 38.042 50.454 39.803 1.537.216 3.178.09 4.334-1.078 1.832-1.851 1.986-5.032 1.74-7.462-3.11-30.69-17.78-61.434-41.654-81.179M518.307 325.1c3.966-.16 7.975-.223 11.944-.183 6.2.062 14.323.613 18.774 5.494 1.17 1.284 1.6 2.735 1.388 4.46-.45 3.636-3.866 6.654-6.512 8.831 2.717.81 5.485 2.288 6.954 4.822 1.528 2.633.882 5.497.248 8.289-.632.743-1.268 1.458-1.989 2.118-7.25 6.642-21.753 4.466-30.831 4.038q-.162-18.934.024-37.87m10.976 20.452c-1.809.062-3.236-.155-4.797.846-1.789 3.542-.57 8.463-.796 12.465 5.963.218 11.82.715 17.677-.707 2.076-.818 4.741-2.525 5.694-4.629.366-.808.195-1.384.142-2.247-1.627-2.896-4.338-4.245-7.474-5.103-3.39-.928-6.97-.752-10.446-.625m1.446-16.463-6.783.257-.03 12.663c4.644.102 9.232.248 13.859-.296 2.548-.97 5.458-2.1 6.58-4.835.5-1.222.205-2.296-.404-3.41-1.155-2.11-4.46-3.617-6.732-3.975-2.13-.334-4.338-.406-6.49-.404m106.8-4.133c4.64-.506 9.13-.271 13.431 1.724 4.713 2.187 8.353 6.07 9.965 11.043q.148.467.274.941t.227.954.179.964q.077.485.13.972.052.487.081.977.028.489.032.98.003.49-.018.98t-.066.978q-.046.488-.115.973-.07.486-.164.967-.095.481-.212.957-.119.476-.26.945-.142.47-.308.932-.165.46-.353.914-.188.453-.398.895-.212.443-.444.874c-3.09 5.66-7.875 8.064-13.748 9.906-5.039.825-10.093.431-14.684-1.96q-.432-.225-.853-.472-.42-.247-.828-.515-.407-.268-.8-.556t-.773-.595-.74-.633q-.364-.326-.71-.67-.347-.343-.675-.703t-.639-.737q-.31-.377-.6-.768-.291-.391-.562-.798-.272-.405-.522-.823-.25-.42-.48-.85-.228-.43-.435-.872-.208-.442-.393-.893-.184-.45-.347-.911-.163-.46-.301-.928-.134-.461-.243-.928-.11-.468-.196-.94-.086-.473-.147-.949-.062-.476-.1-.955-.037-.478-.05-.958t-.002-.96.047-.958q.035-.48.095-.955.06-.476.143-.95.084-.473.192-.94.107-.468.239-.93.13-.46.285-.915t.332-.901.377-.883q.2-.436.422-.862.221-.425.464-.84c3.286-5.548 8.264-7.865 14.25-9.368m2.729 3.978c-5.13 1.156-9.358 2.479-12.275 7.28q-.37.619-.675 1.273t-.545 1.334q-.238.682-.408 1.383-.17.7-.268 1.417-.099.714-.125 1.436-.027.72.017 1.44.046.722.163 1.433.118.713.305 1.41c1.12 4.232 3.906 7.62 7.778 9.63 2.613 1.358 5.726 1.879 8.646 1.97 5.049-1.476 9.178-3.269 11.825-8.172q.35-.646.633-1.323t.498-1.38q.214-.7.359-1.42.143-.72.215-1.45.07-.731.07-1.465-.001-.734-.076-1.465-.074-.73-.22-1.449t-.364-1.42c-1.172-3.769-3.746-6.917-7.336-8.61-2.333-1.1-5.63-2.014-8.217-1.852m190.203-3.898c4.748-.288 9.119-.103 13.508 1.99 4.8 2.29 8.572 6.38 10.21 11.467q.145.448.266.903.122.454.22.915.097.46.171.925t.125.933q.05.469.076.938.027.47.03.94.002.472-.02.942-.02.47-.066.94-.045.467-.115.932-.069.466-.163.927-.092.463-.209.919t-.255.905q-.14.449-.302.891-.163.442-.347.875-.185.434-.391.856-.207.423-.434.835c-3.158 5.592-8.327 8.041-14.251 9.65-5.602.45-10.686.36-15.746-2.485-4.552-2.559-8.071-6.906-9.264-12.033q-.108-.47-.192-.942-.085-.475-.145-.952-.06-.478-.095-.957-.035-.48-.046-.96-.012-.482.002-.963.013-.481.05-.961.039-.48.101-.956.062-.478.149-.951t.197-.942.245-.93.292-.917q.157-.454.338-.9.18-.446.383-.882.203-.437.427-.862.226-.425.472-.838t.514-.814c3.384-4.967 8.555-7.314 14.266-8.438m2.554 4.443c-4.818.726-8.87 2.154-11.802 6.337-2.204 3.145-3.15 7.207-2.459 10.997q.12.693.313 1.369.193.675.456 1.327t.594 1.272.725 1.201.848 1.118.962 1.022 1.063.913q.558.43 1.156.797c3.103 1.93 7.179 2.686 10.796 2.479 4.762-.82 8.8-2.278 11.638-6.486q.4-.596.738-1.23.338-.633.611-1.296.273-.665.479-1.353t.34-1.392q.136-.706.201-1.42.065-.716.058-1.434-.008-.717-.087-1.43-.079-.714-.228-1.417-.145-.706-.361-1.393t-.503-1.349-.64-1.29-.768-1.216q-.417-.588-.892-1.13-.474-.541-1.003-1.03-.528-.49-1.104-.923t-1.193-.803c-3.107-1.837-6.394-2.275-9.938-2.24"
              />
              <path
                fill="#EED06A"
                d="M336.741 374.411c23.874 19.745 38.543 50.489 41.654 81.179.246 2.43.092 5.61-1.74 7.462-1.156 1.168-2.797 1.294-4.334 1.078-12.46-1.76-43.174-29.454-50.454-39.803-6.271-8.918-9.035-19.28-14.428-28.54 10.085-6.674 19.422-14.406 29.302-21.376m6.989 32.253c-3.68 2.025-6.19 4.13-7.363 8.317-1.18 4.214-.139 8.78 2.022 12.497 2.38 4.096 6.349 7.38 11.031 8.4 2 .434 3.842.357 5.853.087 3.456-1.923 6.026-4.119 7.05-8.104 1.09-4.242-.194-8.718-2.47-12.342-2.505-3.99-6.901-7.779-11.638-8.684-1.451-.278-3.02-.315-4.485-.17"
              />
              <path
                fill="#2B2930"
                d="M544.026 193.19c10.86-.196 21.758-.014 32.622-.006.577 37.87.13 75.832.11 113.71l-32.663-.05zM225.74 153.052c2.008 1.563 2.16 8.499 3.039 11.107 1.826 5.42 4.816 10.335 7.656 15.265 3.192 1.528 5.707 2.857 7.823 5.81 1.904 2.654 2.147 5.21 1.542 8.34-6.033 6.309-22.636 16.54-30.661 22.238l-28.264 20.154c-5.741 4.097-11.59 8.715-17.802 12.074-2.247 1.215-3.952 1.048-6.323.3-6.06-5.065-6.876-13.856-10.814-20.429-2.978-4.968-7.11-9.322-10.886-13.691 17.62-13.634 36.454-26.243 54.759-38.979 10.186-7.088 20.85-13.681 29.93-22.19m-3.296 11.104q-21.77 15.197-43.238 30.819c-9.885 7.16-19.74 14.878-30.206 21.152 3.887 4.705 7.733 9.425 10.89 14.668 24.825-15.475 47.615-33.481 71.848-49.74-2.534-4.036-6.85-14.392-9.294-16.9m13.537 21.923c-13.85 9.142-27.13 19.05-40.805 28.435-10.875 7.463-22.592 14.404-32.878 22.643 1.058 1.794 1.936 3.492 3.584 4.822 11.732-7.443 22.911-16.096 34.315-24.063 11.292-7.889 23.082-15.315 34.05-23.63 1.578-1.195 4.145-2.817 4.816-4.671-.481-1.13-1.254-2.669-2.4-3.282-.214-.113-.455-.17-.682-.254m229.664 4.775c15.085-.379 31.423 2.094 44.878 9.235l-9.67 21.44c-8.302-3.282-15.995-5.857-24.912-6.915-6.677-.792-15.731-1.032-21.171 3.415-1.782 1.458-4.226 3.74-4.215 6.261.036 8.832 31.128 14.41 38.446 17.128 5.908 2.193 11.758 5.193 16.412 9.509 5.58 5.175 8.563 11.809 8.743 19.433.204 8.611-2.787 16.398-8.744 22.606-11.387 11.866-29.18 13.79-44.714 14.172-15.68-.313-30.242-3.093-44.447-9.88 3.472-7.78 6.748-15.74 10.721-23.274 11.202 5.142 23.005 8.81 35.436 8.702 5.071-.044 12.09-.518 15.727-4.47 1.288-1.399 2.092-3.386 1.846-5.309-1.394-10.89-27.96-14.19-36.5-16.803-6.14-1.88-12.276-4.343-17.298-8.444-5.55-4.53-8.429-10.29-9.032-17.38-.699-8.21 1.488-17.339 6.93-23.663 10.07-11.697 27.02-14.657 41.564-15.763"
              />
              <path
                fill="#EED06A"
                d="M95.844 91.158c16.257-4.64 39.255-4.633 54.32 3.947 3.78 2.153 5.818 6.176 9.568 8.216l.45.668c4.868 7.266 8.774 23.582 18.685 25.254 1.493.252 2.936-.043 4.14-.995 1.981-1.567 2.859-4.305 3.02-6.739.355-5.367-2.753-10.673-6.323-14.462-.213-.227-.433-.449-.648-.672 9.958.87 20.953 9.319 27.166 16.732 4.408 5.26 5.439 11.507 8.797 15.664 2.043 5.133 2.013 10.921 1.91 16.35-7.52 6.657-16.932 12.203-25.19 18.034l-49.383 35.095c-5.04-3.292-10.61-6.368-14.786-10.767-17.925-18.892-4.594-53.563-10.325-77.132-3.177-13.075-9.97-22.294-21.401-29.193"
              />
              <path
                fill="#2B2930"
                d="M648.368 192.795q18.419.045 36.834.331c15.693 38.462 32.509 76.647 49.176 114.699l-34.147.154c-2.76-8.139-6.195-16.036-9.222-24.079l-8.942-.095q-20.715-.087-41.429.152-4.547 11.767-9.823 23.225c-11.67-.982-23.744-.447-35.46-.441q27.601-56.463 53.013-113.946m17.709 29.519c-5.668 12.88-10.356 26.204-16.018 39.045l17.604.09 14.769.074c-2.509-6.594-12.948-35.758-16.355-39.209m209.787-29.661q10.958-.027 21.915.088l-.198 115.082c-10.09-.132-20.191-.03-30.282-.03l.168-60.846c-11.637 15.045-22.68 30.689-33.754 46.153l-14.652-.082c-5.638-9.032-11.76-17.639-18.14-26.155-5.34-7.13-11.065-14.225-15.6-21.901l.025 31.622.053 31.183c-9.585-.338-19.251-.103-28.844-.092l-.206-114.54 22.881-.006c6.466 10.118 13.592 19.822 20.45 29.677l27.145 39.445q24.084-35.107 49.04-69.598m-639.164 13.019c3.414 3.658 6.055 9.133 8.61 13.455q6.584 11.325 13.49 22.456l53.723 85.331c8.517 13.305 16.381 26.915 25.726 39.674-12.49 5.624-27.807 18.977-39.36 27.372-1.676-2.842-4.11-5.5-6.16-8.103-26.132-32.788-50.376-67.138-76.19-100.184-11.21-14.35-23.737-27.422-35.075-41.642 18.84-12.083 36.813-25.656 55.236-38.36"
              />
              <path
                fill="#2B2930"
                d="M189.738 73.567c37.595-1.95 76.118 10.21 107.162 31.09 38.319 25.774 66.614 66.872 75.423 112.407 9.598 49.617-2.645 98.355-30.726 139.854-3.682-4.36-6.686-9.457-9.529-14.392 1.91-2.768 3.574-5.698 5.287-8.588l-5.3-4.376c-.085 1.777-.107 3.608-.33 5.37-.16 1.248-.185 2.559-1.171 3.377-2.875-1.073-3.851-5.75-4.78-8.35-3.92-10.965-11.053-18.915-16.67-28.875 3.198 1.34 6.192 3.067 9.222 4.742l3.264 2.138c-3.63-27.756-11.532-55.048-20.522-81.485-11.525 1.382-22.745 3.395-33.984 6.298-1.536-2.466-2.582-5.19-3.705-7.86 10.147-4.938 23.179-5.572 34.228-6.893-5.564-11.682-10.907-23.102-17.34-34.343-7.49 7.284-15.526 13.912-23.59 20.546-1.476-2.24-2.823-4.603-4.223-6.894 6.919-7.748 14.95-14.745 23.111-21.153-24.105-31.845-50.622-61.475-88.185-77.394-8.313-3.523-17.33-4.268-25.593-7.661-3.883-1.594-7.48-4.477-11.072-6.66-2.833-1.72-5.838-2.943-8.91-4.168 16.136-3.188 31.509-5.562 47.933-6.73m122.498 63.077c-6.651 13.951-14.721 28.538-25.698 39.524 7.65 12.97 15.665 26.668 21.099 40.745 8.532-1.063 17.109-.741 25.683-.57q11.878.872 23.71 2.237c-7.84-30.977-21.929-59.15-44.794-81.936m1.12 89.158-1.934.244c-.518 2.183 7.089 22.738 8.338 27.123q5.066 17.422 8.198 35.295c1.653 9.806 2.655 19.802 4.747 29.52q4.854 3.685 9.545 7.574c1.589-3.414 3.26-6.815 4.736-10.278 11.346-28.046 16.109-56.736 11.937-86.954-15.283-1.783-30.155-3.15-45.568-2.524m-80.01-132.677c-1.977 6.209-4.074 12.378-6.904 18.26 21.066 15.397 40.625 34.767 54.405 57.091 2.584-2.998 5.12-5.993 7.489-9.165 6.813-9.492 11.597-19.32 16.553-29.811-16.563-13.617-33.759-23.828-53.961-31.103-5.732-2.063-11.97-3.026-17.583-5.272m-44.092-5.096-4.097.392.048.408c6.798 3.435 13.922 6.196 20.671 9.696 4.117 2.136 8.343 5.54 12.624 7.12l.812-.969q2.36-6.876 5.05-13.632c-11.397-1.798-23.558-4.017-35.108-3.015m-98.164 24.202c.383.39.463.446.772.843 2.762 3.549 5.118 11.374 5.095 15.902-.037 6.896-3.746 14.968-5.33 21.8Q87.87 167.04 85.7 183.591c4.602 1.979 9.133 3.981 13.579 6.298 1.293 4.006 3.07 7.818 4.776 11.66-6.72-1.7-13.188-5.437-19.612-8.062 1.204 30.072 5.179 51.581 14.37 80.247 26.78-2.827 51.752-10.391 77.377-18.276 2.157 2.096 4.087 4.476 6.068 6.743-25.013 11.576-52.488 16.917-79.572 20.884 6.516 14.379 13.384 28.423 22.264 41.51 15.925-17.886 45.932-40.032 68.13-49.478 2.019 2.326 3.8 4.74 5.574 7.255-25.283 12.756-48.3 30.321-68.306 50.276 5.371 6.308 10.521 12.786 16.205 18.821 13.571 14.407 28.766 26.959 44.339 39.117 11.441-15.243 32.032-30.057 48.7-39.158 3.686-1.91 7.362-3.618 11.217-5.155 1.948 2.554 4.008 5.03 6.027 7.529-21.82 9.41-42.898 23.881-57.897 42.523q17.275 9.27 34.682 18.289c19.827-4.692 35.765-11.195 52.892-22.316l12.112 12.236c-22.616 13.841-48.04 23.537-74.445 26.57q-2.165.267-4.337.48t-4.348.372-4.355.263q-2.18.105-4.362.156-2.181.05-4.364.048-2.181-.003-4.363-.06-2.182-.058-4.36-.169-2.18-.111-4.355-.276t-4.348-.384q-2.17-.22-4.335-.492-2.166-.273-4.323-.6t-4.307-.706q-2.148-.38-4.287-.812t-4.265-.92q-2.128-.486-4.243-1.023-2.115-.54-4.216-1.13t-4.186-1.233-4.154-1.336-4.12-1.44q-2.052-.744-4.084-1.54t-4.044-1.641q-2.011-.846-4.002-1.742-1.99-.895-3.958-1.84-1.967-.943-3.911-1.936t-3.862-2.033-3.81-2.13q-1.892-1.087-3.758-2.222-1.864-1.135-3.7-2.315-1.835-1.18-3.642-2.406-1.806-1.225-3.581-2.496-1.776-1.27-3.52-2.583t-3.453-2.67C56.723 365.15 30.325 320.435 25.17 273.745c-5.131-46.477 8.211-96.593 37.716-133.03 4.396-5.428 9.201-10.708 14.37-15.41 4.461-4.055 9.81-7.896 13.504-12.636q.166-.218.328-.438M41.46 279.74c7.54 36.39 22.726 66.146 49.24 92.478 3.14-5.834 6.345-11.585 9.788-17.245q8.22-12.216 17.988-23.232c-9.81-15.124-19.443-31.021-25.945-47.908-16.893.102-34.561-.036-51.071-4.093m14.879-100.367c-10.395 24.536-17.195 47.759-16.92 74.679.06 5.85.75 11.63 1.03 17.459 10.873 1.135 21.748 2.377 32.67 2.92 5.37.03 10.742.12 16.106-.149-8.785-27.59-15.71-56.176-13.736-85.382zm67.12 160.227c-9.568 12.624-18.287 25.077-25.738 39.099 18.286 16.52 40.433 27.266 64.162 33.45 4.185 1.003 8.364 2.049 12.563 2.99 3.074-5.973 6.287-11.622 10.49-16.896-18.92-14.34-36.392-29.37-51.71-47.601-2.678-3.185-6.221-8.945-9.767-11.042M84.424 139.638c-9.19 9.77-17.611 19.79-23.964 31.699 1.855.776 3.76 1.496 5.517 2.479 3.492 1.871 7.116 3.638 10.491 5.707 1.3-8.83 2.703-17.573 4.807-26.25.788-3.256 3.596-10.736 3.149-13.635M192.9 403.069c-2.961 4.219-5.715 8.494-8.397 12.892 8.305 1.362 16.608 1.524 25.006 1.259l6.978-.11q-11.943-6.768-23.587-14.04"
              />
            </g>
          </svg>